<svg width="1622" height="1031" xmlns="http://www.w3.org/2000/svg" xmlns:xlink="http://www.w3.org/1999/xlink" xml:space="preserve" overflow="hidden"><g transform="translate(-2415 -1251)"><g><g><g><g><path d="M472.082 206.213C402.675 136.806 289.96 136.806 220.267 206.213 150.573 275.62 150.86 388.335 220.267 458.028 289.674 527.435 402.388 527.435 471.795 458.028 541.489 388.622 541.489 275.907 472.082 206.213ZM455.734 441.967C395.218 502.483 297.131 502.483 236.615 441.967 176.099 381.451 176.099 283.364 236.615 222.848 297.131 162.332 395.218 162.332 455.734 222.848 515.676 283.077 515.103 380.878 455.734 441.967ZM474.95 283.364 453.44 291.394C456.021 298.278 458.028 305.448 459.176 312.618L481.833 308.89C480.399 299.999 478.105 291.681 474.95 283.364ZM443.688 234.607C423.038 213.957 396.365 200.477 367.685 195.888L364.243 218.546C388.335 222.274 410.419 233.46 427.627 250.668 435.084 258.125 441.681 266.729 446.843 275.907L466.919 264.722C460.323 254.11 452.579 243.785 443.688 234.607ZM635.274 540.342C619.787 524.854 603.439 510.801 586.231 497.608L527.435 453.44C594.548 353.344 567.588 217.972 467.78 151.147 367.972 84.3208 232.312 110.994 165.2 211.089 98.0875 311.184 125.047 446.556 224.856 513.382 298.278 562.426 393.784 562.426 467.206 513.382L511.374 572.177C524.281 589.672 538.621 606.02 554.108 621.221L601.144 668.257 682.597 587.091 635.274 540.342ZM207.934 470.361C131.644 394.071 131.644 270.458 207.934 194.167 284.224 117.877 407.837 117.877 484.128 194.167 560.418 270.458 560.418 394.071 484.128 470.361 447.417 507.072 397.799 527.722 345.888 527.722 294.263 527.722 244.645 507.072 207.934 470.361ZM570.456 605.16C555.829 590.533 542.349 575.045 530.017 558.41L485.849 499.615C490.724 495.313 495.6 491.011 500.476 486.422 505.351 481.833 509.653 476.958 513.669 471.795L572.464 515.963C589.099 528.296 604.586 541.776 619.213 556.403L650.188 587.378 601.431 636.135 570.456 605.16ZM702.96 607.741 694.93 632.119 646.173 680.876 621.794 688.907 613.764 680.876 694.93 599.71 702.96 607.741Z" fill="#FFFFFF" fill-rule="nonzero" fill-opacity="1" transform="matrix(1.0017 0 0 1 3208.3 1357)"/></g></g></g><g><g><g><path d="M773.816 296.475C773.816 236.852 603.541 221.09 513.5 221.09 423.459 221.09 253.184 236.852 253.184 296.475 253.184 297.473 253.184 298.472 253.184 299.47 253.184 300.469 253.184 300.433 253.184 300.968L253.184 732.451C253.184 790.576 423.459 805.91 513.5 805.91 603.541 805.91 773.816 790.576 773.816 732.593L773.816 300.968C773.816 300.433 773.816 299.97 773.816 299.47 773.816 298.971 773.816 297.473 773.816 296.475ZM745.288 588.671C745.288 591.31 734.412 604.504 684.167 616.557 638.737 627.469 578.115 633.459 513.5 633.459 448.885 633.459 388.263 627.611 342.833 616.557 292.588 604.504 281.712 591.31 281.712 588.671L281.712 481.406C334.06 509.934 446.174 518.528 513.5 518.528 580.826 518.528 692.94 509.934 745.288 481.406ZM745.288 445.105C745.288 447.743 734.412 460.938 684.167 472.991 638.737 483.902 578.115 489.893 513.5 489.893 448.885 489.893 388.263 483.902 342.833 472.991 292.588 460.938 281.712 447.743 281.712 445.105L281.712 333.704C334.06 363.052 446.174 371.86 513.5 371.86 580.826 371.86 692.94 363.052 745.288 333.704ZM342.94 267.091C388.334 255.823 448.885 249.618 513.5 249.618 578.115 249.618 638.666 255.823 684.061 267.091 734.876 279.715 745.288 293.48 745.288 296.475 745.288 299.47 734.876 313.235 684.061 325.859 638.666 337.127 578.115 343.332 513.5 343.332 448.885 343.332 388.334 337.127 342.94 325.859 292.124 313.235 281.712 299.542 281.712 296.475 281.712 293.408 292.124 279.715 342.94 267.091ZM684.167 760.479C638.737 771.391 578.115 777.382 513.5 777.382 448.885 777.382 388.263 771.391 342.833 760.479 292.588 748.426 281.712 735.197 281.712 732.593L281.712 624.865C334.06 653.393 446.174 661.987 513.5 661.987 580.826 661.987 692.94 653.429 745.288 624.865L745.288 732.593C745.288 735.197 734.59 748.426 684.167 760.479Z" fill="#FFFFFF" fill-rule="nonzero" fill-opacity="1" transform="matrix(1.0017 0 0 1 2416.13 1255)"/></g></g></g></g></g></svg>